<svg width="1920" height="899" viewBox="0 0 1920 899" fill="none" xmlns="http://www.w3.org/2000/svg">
<rect width="1920" height="899" fill="#F5F3EE"/>
<path d="M1825.2 71V103.409" stroke="#C4B2A4" stroke-width="1.5832" stroke-miterlimit="10"/>
<path d="M1809 87.2051H1841.41" stroke="#C4B2A4" stroke-width="1.5832" stroke-miterlimit="10"/>
<path d="M1827.92 84.4172L1834.63 77.7012" stroke="#C4B2A4" stroke-width="1.5832" stroke-miterlimit="10"/>
<path d="M1815.77 96.5666L1822.49 89.8496" stroke="#C4B2A4" stroke-width="1.5832" stroke-miterlimit="10"/>
<path d="M1827.92 89.8496L1834.63 96.5666" stroke="#C4B2A4" stroke-width="1.5832" stroke-miterlimit="10"/>
<path d="M1815.77 77.7012L1822.49 84.4172" stroke="#C4B2A4" stroke-width="1.5832" stroke-miterlimit="10"/>
<g opacity="0.5">
<path d="M1654.77 691.976C1650.06 690.872 1645.45 688.741 1641.09 686.593C1628.83 680.551 1617.51 672.361 1607.24 663.05C1601.05 657.444 1595.11 651.487 1590.06 644.688C1585.64 638.742 1581.88 632.263 1578.62 625.524C1572.53 612.905 1568.35 599.414 1564.28 585.939C1560.99 575.037 1557.94 563.637 1552.38 553.741C1551.8 552.691 1551.17 551.667 1550.51 550.666C1550.19 551.008 1549.87 551.348 1549.55 551.688C1553.54 554.073 1557.36 556.807 1561.1 559.585C1570.09 566.242 1578.62 573.634 1586.45 581.788C1591.11 586.642 1595.52 591.779 1599.56 597.236C1604.07 603.339 1607.93 609.895 1611.52 616.655C1618.37 629.58 1623.85 643.205 1629.95 656.529C1635.4 668.414 1641.75 679.777 1650.4 689.354C1651.59 690.68 1652.83 691.967 1654.09 693.223C1654.75 693.879 1655.74 692.825 1655.08 692.167C1645.7 682.822 1638.66 671.584 1632.87 659.43C1626.68 646.447 1621.44 632.985 1614.94 620.167C1611.42 613.219 1607.67 606.371 1603.28 599.999C1599.38 594.341 1595.07 589.01 1590.48 583.979C1582.58 575.317 1573.86 567.505 1564.66 560.446C1561.56 558.06 1558.39 555.76 1555.16 553.571C1553.64 552.541 1552.1 551.38 1550.48 550.531C1550.41 550.491 1550.33 550.441 1550.26 550.397C1549.69 550.053 1548.88 550.78 1549.3 551.418C1555.45 560.742 1558.62 572.095 1561.87 582.823C1565.91 596.143 1569.86 609.526 1575.52 622.19C1578.55 628.972 1582.05 635.524 1586.16 641.629C1590.7 648.365 1595.99 654.316 1601.74 659.88C1612.41 670.2 1624.22 679.344 1637.13 686.214C1640.89 688.215 1644.75 690.028 1648.71 691.542C1650.47 692.216 1652.31 692.971 1654.16 693.352C1654.24 693.369 1654.32 693.394 1654.4 693.413C1655.28 693.623 1655.65 692.182 1654.77 691.976Z" fill="#C4B2A4"/>
<path d="M1549.41 551.57C1556.67 560.086 1563.39 569.187 1569.78 578.451C1575.54 586.809 1581 595.426 1585.88 604.405C1590.61 613.103 1594.51 622.264 1599.3 630.925C1608.47 647.48 1619.77 662.605 1633.11 675.555C1644.53 686.637 1657.11 695.958 1670.64 703.825C1684.19 711.697 1698.09 718.855 1711.79 726.397C1727.27 734.912 1742.61 743.787 1757.2 753.951C1771.16 763.671 1784.19 774.622 1795.43 787.784C1807.29 801.667 1818.08 816.586 1828.41 831.783C1837.76 845.545 1846.72 859.612 1855.38 873.875C1860.13 881.693 1864.81 889.565 1869.34 897.532C1869.55 897.911 1869.77 898.289 1869.98 898.669C1870.44 899.493 1871.65 898.742 1871.19 897.915C1868.02 892.268 1864.73 886.697 1861.42 881.144C1853.52 867.893 1845.37 854.813 1836.92 841.957C1826.85 826.641 1816.37 811.591 1805.07 797.279C1799.77 790.571 1794.33 783.927 1788.39 777.858C1782.48 771.828 1776.1 766.326 1769.5 761.183C1755.43 750.219 1740.3 740.862 1724.96 732.086C1710.57 723.856 1695.9 716.212 1681.39 708.207C1668.66 701.176 1656.36 693.735 1645.02 684.307C1630.44 672.185 1617.66 657.801 1607.25 641.501C1602.09 633.43 1597.51 624.957 1593.38 616.246C1588.91 606.813 1583.98 597.736 1578.44 588.966C1570.38 576.208 1561.5 563.979 1551.99 552.415C1551.46 551.778 1550.94 551.141 1550.4 550.513C1549.8 549.801 1548.81 550.86 1549.41 551.57Z" fill="#C4B2A4"/>
<path d="M1710.56 724.04C1706.8 721.358 1702.67 719.174 1698.57 717.151C1688.85 712.345 1678.56 708.767 1668.02 706.68C1654.14 703.935 1640.21 704.132 1626.34 706.774C1614.48 709.034 1603.06 713.251 1591.25 715.694C1585 716.986 1578.65 717.529 1572.3 716.981C1564.25 716.287 1556.41 713.933 1548.88 710.891C1548.31 710.658 1547.78 711.465 1548.09 711.988C1550.27 715.589 1553.42 718.689 1556.46 721.423C1564.78 728.909 1574.67 734.238 1584.97 737.883C1600.27 743.302 1616.99 745.587 1633.06 743.908C1646.19 742.536 1658.55 738.114 1670.89 733.369C1682.06 729.071 1693.41 725.065 1705.43 725.188C1707.03 725.204 1708.62 725.29 1710.2 725.431C1711.1 725.51 1711.1 724.017 1710.2 723.938C1698.29 722.884 1686.84 725.833 1675.67 729.975C1663.8 734.371 1652.13 739.281 1639.68 741.484C1623.71 744.309 1607.12 742.881 1591.53 738.42C1580.2 735.178 1569.18 730.053 1559.83 722.409C1557.14 720.217 1554.6 717.807 1552.31 715.16C1551.61 714.36 1550.94 713.538 1550.31 712.687C1550.05 712.34 1549.8 711.762 1549.42 711.42C1549.37 711.377 1549.34 711.291 1549.3 711.234C1549.04 711.599 1548.78 711.966 1548.51 712.331C1560.64 717.233 1573.32 719.87 1586.27 718.063C1597.66 716.474 1608.6 712.34 1619.79 709.696C1633.91 706.357 1648.22 705.083 1662.59 707.24C1673.83 708.925 1684.85 712.347 1695.25 717.184C1700.25 719.511 1705.3 722.085 1709.85 725.329C1710.6 725.865 1711.3 724.572 1710.56 724.04Z" fill="#C4B2A4"/>
<path d="M1726.23 732.31C1722.05 729.554 1718.03 726.489 1714.08 723.375C1705.03 716.239 1696.38 708.463 1688.48 699.912C1679.27 689.94 1671.17 678.871 1665.63 666.113C1659.29 651.496 1656.06 635.703 1652.74 620.078C1649.9 606.768 1647.11 592.753 1640.21 581.044C1639.43 579.722 1638.59 578.44 1637.7 577.198C1637.33 577.5 1636.97 577.801 1636.6 578.103C1640.15 581.051 1643.44 584.415 1646.64 587.786C1654.82 596.411 1662.27 605.836 1668.92 615.835C1678.25 629.845 1685.57 645.009 1692.08 660.695C1697.58 673.959 1702.27 687.57 1707.53 700.936C1711.61 711.27 1716.25 721.36 1722.81 730.188C1723.64 731.309 1724.5 732.406 1725.38 733.482C1725.98 734.208 1726.96 733.148 1726.37 732.426C1719.34 723.848 1714.29 713.852 1710.05 703.452C1704.87 690.731 1700.45 677.669 1695.32 664.92C1688.93 649.023 1681.86 633.462 1672.75 619.109C1665.99 608.445 1658.34 598.389 1649.91 589.174C1646.11 585.027 1642.17 580.655 1637.78 577.202C1637.71 577.152 1637.65 577.097 1637.59 577.045C1637.03 576.582 1635.96 577.209 1636.49 577.95C1644.35 588.926 1647.55 602.834 1650.43 616.044C1653.83 631.585 1656.75 647.321 1662.48 662.13C1667.62 675.398 1675.17 686.988 1684.33 697.454C1692.28 706.54 1701.12 714.727 1710.37 722.259C1713.64 724.914 1716.96 727.487 1720.35 729.96C1721.96 731.137 1723.58 732.445 1725.3 733.449C1725.38 733.495 1725.45 733.55 1725.52 733.6C1726.29 734.106 1727 732.816 1726.23 732.31Z" fill="#C4B2A4"/>
<path d="M1636.6 578.1C1640.32 582.887 1643.75 587.946 1647.08 593.042C1654.26 604.024 1660.84 615.527 1666.15 627.669C1668.77 633.643 1670.85 639.845 1673.21 645.932C1675.47 651.753 1677.87 657.512 1680.41 663.199C1685.94 675.547 1692.1 687.593 1699.08 699.076C1706.62 711.491 1715.15 723.427 1725.38 733.482C1726.04 734.132 1727.03 733.079 1726.37 732.425C1717.19 723.403 1709.41 712.858 1702.46 701.831C1695.24 690.37 1688.88 678.289 1683.19 665.896C1680.52 660.085 1677.99 654.198 1675.62 648.242C1673.31 642.438 1671.33 636.492 1668.97 630.71C1663.87 618.214 1657.31 606.407 1650.14 595.15C1646.19 588.954 1642.07 582.818 1637.59 577.045C1637.01 576.303 1636.03 577.365 1636.6 578.1Z" fill="#C4B2A4"/>
<path d="M1548.35 712.256C1551.69 714.602 1555.39 716.463 1559.04 718.172C1568.03 722.381 1577.55 725.344 1587.26 726.927C1600.37 729.064 1613.38 728.181 1626.46 726.211C1639.88 724.189 1653.17 721.091 1666.67 719.667C1681.35 718.117 1696.15 719.065 1709.85 725.33C1710.67 725.705 1711.39 724.419 1710.56 724.04C1698.68 718.608 1685.92 716.911 1673.08 717.645C1659.89 718.398 1646.9 721.254 1633.89 723.501C1620.4 725.832 1606.76 727.68 1593.09 726.222C1582.59 725.103 1572.24 722.324 1562.46 718.105C1557.87 716.124 1553.21 713.884 1549.05 710.968C1548.3 710.436 1547.6 711.729 1548.35 712.256Z" fill="#C4B2A4"/>
<path d="M1769.78 761.654C1765.86 759.053 1761.57 756.984 1757.32 755.076C1747.18 750.523 1736.5 747.29 1725.61 745.648C1711.48 743.519 1697.43 744.439 1683.52 747.76C1672.03 750.505 1661 755.056 1649.5 757.759C1643.46 759.18 1637.3 759.868 1631.12 759.53C1623.14 759.095 1615.33 757.046 1607.79 754.304C1607.23 754.1 1606.66 754.87 1607 755.401C1609.31 758.953 1612.57 761.955 1615.73 764.597C1624.36 771.824 1634.51 776.818 1645 780.081C1660.49 784.897 1677.25 786.529 1693.27 784.228C1706.3 782.355 1718.47 777.467 1730.61 772.301C1741.58 767.634 1752.75 763.269 1764.7 762.972C1766.28 762.932 1767.85 762.962 1769.43 763.045C1770.33 763.092 1770.33 761.599 1769.43 761.551C1757.55 760.927 1746.26 764.236 1735.28 768.746C1723.64 773.524 1712.21 778.831 1699.93 781.515C1684.05 784.988 1667.42 784.229 1651.66 780.378C1640.12 777.562 1628.86 772.834 1619.18 765.494C1616.41 763.397 1613.78 761.078 1611.39 758.506C1610.65 757.717 1609.94 756.903 1609.26 756.057C1608.92 755.623 1608.6 755.007 1608.33 754.826C1608.29 754.793 1608.25 754.696 1608.21 754.645C1607.95 755.01 1607.68 755.377 1607.42 755.742C1619.52 760.142 1632.08 762.335 1644.79 760.222C1656 758.361 1666.67 753.896 1677.6 750.834C1691.44 746.956 1705.52 745.008 1719.82 746.414C1731.43 747.557 1742.87 750.597 1753.72 755.117C1758.97 757.301 1764.28 759.762 1769.08 762.94C1769.85 763.452 1770.55 762.16 1769.78 761.654Z" fill="#C4B2A4"/>
<path d="M1778.85 769.726C1774.98 766.651 1771.24 763.229 1767.6 759.803C1759.24 751.936 1751.33 743.488 1744.19 734.349C1735.79 723.589 1728.54 711.795 1724.03 698.581C1718.87 683.433 1716.88 667.412 1714.84 651.526C1713.08 637.849 1711.44 623.486 1705.44 611.043C1704.78 609.66 1704.05 608.313 1703.27 606.999C1702.9 607.3 1702.54 607.602 1702.17 607.903C1705.44 611.14 1708.42 614.762 1711.31 618.381C1718.78 627.756 1725.45 637.876 1731.29 648.488C1739.46 663.321 1745.51 679.12 1750.72 695.368C1755.08 708.969 1758.63 722.833 1762.74 736.516C1765.96 747.223 1769.76 757.796 1775.6 767.226C1776.33 768.42 1777.1 769.592 1777.89 770.746C1778.42 771.514 1779.64 770.769 1779.1 769.993C1772.79 760.793 1768.55 750.398 1765.17 739.638C1761.01 726.414 1757.66 712.917 1753.56 699.671C1748.49 683.328 1742.74 667.252 1734.89 652.179C1729.01 640.899 1722.19 630.16 1714.53 620.174C1712.12 617.036 1709.63 613.972 1707.02 611.018C1705.84 609.674 1704.66 608.208 1703.33 607.02C1703.27 606.966 1703.22 606.904 1703.16 606.847C1702.6 606.289 1701.62 607.009 1702.06 607.752C1709.07 619.542 1711.1 633.906 1712.91 647.477C1715.03 663.382 1716.7 679.442 1721.34 694.799C1725.45 708.392 1732.13 720.528 1740.4 731.705C1747.58 741.416 1755.69 750.338 1764.28 758.635C1767.23 761.48 1770.24 764.255 1773.31 766.94C1774.8 768.241 1776.3 769.73 1777.93 770.837C1778 770.888 1778.07 770.955 1778.15 771.014C1778.87 771.59 1779.57 770.295 1778.85 769.726Z" fill="#C4B2A4"/>
<path d="M1702.06 607.753C1705.46 612.996 1708.55 618.492 1711.52 624.017C1717.95 635.971 1723.73 648.42 1728.04 661.43C1730.01 667.393 1731.51 673.517 1733.3 679.543C1735.11 685.594 1737.07 691.594 1739.17 697.534C1743.67 710.241 1748.82 722.714 1754.83 734.699C1761.28 747.589 1768.75 760.074 1778 770.899C1778.61 771.611 1779.6 770.552 1778.99 769.843C1770.65 760.084 1763.8 748.945 1757.81 737.417C1751.6 725.481 1746.3 713.018 1741.66 700.302C1739.52 694.421 1737.52 688.481 1735.67 682.487C1733.84 676.561 1732.34 670.531 1730.53 664.6C1726.52 651.478 1720.91 638.917 1714.64 626.868C1711.11 620.097 1707.4 613.374 1703.27 607C1702.76 606.214 1701.54 606.96 1702.06 607.753Z" fill="#C4B2A4"/>
<path d="M1607.26 755.668C1610.71 757.916 1614.5 759.654 1618.24 761.249C1627.45 765.176 1637.15 767.767 1647 768.994C1660.45 770.669 1673.74 769.142 1687 766.599C1700.2 764.068 1713.24 760.548 1726.55 758.731C1741 756.76 1755.55 757.328 1769.25 763.018C1770.09 763.367 1770.45 761.923 1769.62 761.577C1757.62 756.59 1744.8 755.402 1732.04 756.601C1719.15 757.811 1706.52 761.02 1693.85 763.696C1680.3 766.557 1666.59 768.992 1652.73 768.051C1642.19 767.336 1631.75 764.961 1621.82 761.113C1617.09 759.279 1612.28 757.188 1607.97 754.378C1607.19 753.875 1606.49 755.166 1607.26 755.668Z" fill="#C4B2A4"/>
<path d="M1818.89 815.48C1815.26 812.772 1811.25 810.537 1807.28 808.458C1797.83 803.508 1787.8 799.734 1777.5 797.384C1763.7 794.238 1749.75 794.004 1735.82 796.269C1723.74 798.234 1712.1 802.242 1700.09 804.499C1693.77 805.685 1687.36 806.12 1680.97 805.448C1672.88 804.598 1665.03 802.057 1657.5 798.829C1656.92 798.579 1656.41 799.408 1656.71 799.926C1658.8 803.544 1661.87 806.69 1664.83 809.472C1672.97 817.129 1682.74 822.669 1692.92 826.544C1708.13 832.328 1724.83 834.993 1740.94 833.681C1754.14 832.606 1766.63 828.436 1779.1 823.945C1790.34 819.894 1801.75 816.145 1813.76 816.526C1815.36 816.576 1816.95 816.697 1818.54 816.872C1819.43 816.971 1819.43 815.477 1818.54 815.379C1806.61 814.062 1795.08 816.791 1783.79 820.706C1771.85 824.847 1760.1 829.489 1747.61 831.408C1731.55 833.876 1714.96 832.057 1699.43 827.221C1688.23 823.733 1677.34 818.381 1668.2 810.555C1665.57 808.305 1663.09 805.854 1660.85 803.166C1660.2 802.383 1659.53 801.537 1658.96 800.733C1658.66 800.326 1658.39 799.7 1658.04 799.362C1657.99 799.318 1657.96 799.231 1657.92 799.174C1657.66 799.539 1657.4 799.905 1657.13 800.271C1669.37 805.521 1682.19 808.415 1695.38 806.744C1706.95 805.278 1718.1 801.312 1729.52 798.949C1743.66 796.018 1757.93 795.236 1772.18 797.814C1783.18 799.805 1793.92 803.451 1804.03 808.456C1808.89 810.857 1813.79 813.495 1818.19 816.772C1818.92 817.321 1819.62 816.027 1818.89 815.48Z" fill="#C4B2A4"/>
<path d="M1828.19 827.986C1824.86 824.249 1821.76 820.265 1818.73 816.254C1811.84 807.132 1805.47 797.522 1799.94 787.396C1793.4 775.407 1788.07 762.632 1785.62 748.95C1782.75 732.948 1783.32 716.608 1783.85 700.417C1784.35 685.03 1785.23 668.494 1779.56 653.967C1779.14 654.158 1778.71 654.351 1778.28 654.543C1781.08 658.441 1783.5 662.682 1785.83 666.904C1791.78 677.685 1796.81 689.061 1800.89 700.786C1806.51 716.927 1809.89 733.646 1812.41 750.621C1814.5 764.659 1815.76 778.803 1817.63 792.869C1819.1 803.888 1821.2 814.829 1825.41 825.066C1825.94 826.357 1826.5 827.631 1827.09 828.893C1827.49 829.754 1828.7 828.999 1828.3 828.139C1823.6 818.053 1821.1 807.149 1819.48 796.07C1817.51 782.584 1816.38 768.973 1814.51 755.468C1812.16 738.387 1809.11 721.42 1803.81 705.071C1799.8 692.663 1794.74 680.614 1788.68 669.183C1785.96 664.037 1783.14 658.611 1779.64 653.993C1779.59 653.927 1779.54 653.857 1779.49 653.789C1779.06 653.191 1777.88 653.505 1778.21 654.364C1783.33 667.466 1782.98 682.207 1782.58 696.129C1782.12 712.166 1781.28 728.263 1783.46 744.21C1787.04 770.492 1800.5 793.884 1815.62 814.471C1819.3 819.475 1823.09 824.434 1827.2 829.045C1827.82 829.742 1828.81 828.684 1828.19 827.986Z" fill="#C4B2A4"/>
<path d="M1778.28 654.541C1780.82 660.375 1783 666.406 1785.06 672.445C1789.42 685.195 1793.06 698.303 1795.24 711.685C1796.28 718.071 1796.79 724.534 1797.62 730.953C1798.44 737.244 1799.42 743.51 1800.54 749.745C1802.95 763.02 1806.03 776.177 1810.02 789.015C1814.33 802.885 1819.69 816.552 1827.09 828.893C1827.57 829.701 1828.79 828.952 1828.3 828.139C1821.63 817.011 1816.64 804.806 1812.56 792.361C1808.37 779.548 1805.14 766.382 1802.59 753.092C1801.38 746.771 1800.33 740.415 1799.44 734.034C1798.58 727.862 1798.06 721.648 1797.22 715.475C1795.35 701.754 1791.79 688.304 1787.48 675.238C1785.1 667.992 1782.52 660.76 1779.49 653.789C1779.11 652.917 1777.9 653.674 1778.28 654.541Z" fill="#C4B2A4"/>
<path d="M1656.96 800.192C1660.27 802.622 1663.95 804.571 1667.59 806.365C1676.42 810.723 1685.79 813.863 1695.38 815.663C1708.71 818.165 1722.02 817.508 1735.4 815.753C1748.64 814.014 1761.77 811.282 1775.08 810.166C1789.81 808.93 1804.59 810.2 1818.18 816.77C1819 817.164 1819.71 815.876 1818.89 815.48C1807.09 809.777 1794.32 807.818 1781.44 808.284C1768.36 808.757 1755.43 811.296 1742.5 813.249C1728.8 815.32 1714.95 816.898 1701.13 815.085C1690.74 813.721 1680.5 810.73 1670.89 806.311C1666.36 804.227 1661.75 801.899 1657.67 798.904C1656.92 798.357 1656.22 799.651 1656.96 800.192Z" fill="#C4B2A4"/>
</g>
<g opacity="0.5">
<path d="M158.491 623.253C159.003 619.075 158.462 614.597 157.959 610.46C156.296 596.797 152.42 583.425 147.892 570.563C143.464 557.985 138.099 545.837 132.102 534.027C129.143 528.2 126.032 522.449 122.62 516.91C119.896 512.487 116.999 508.015 113.404 504.334C112.25 503.153 110.961 501.944 109.465 501.284C107.649 500.482 105.466 501.162 103.833 502.164C101.791 503.416 100.706 505.591 100.131 507.952C99.8451 509.129 99.8566 511.121 98.997 512.039C97.7734 513.346 94.9349 511.411 93.7331 510.918C92.2543 510.311 90.7113 509.749 89.1226 509.603C87.2524 509.434 85.9362 510.103 84.2731 510.872C82.61 511.641 80.8668 512.145 79.1373 512.708C77.7192 513.169 76.0722 513.645 75.0043 514.811C72.722 517.303 74.9265 521.391 76.0757 523.893C76.8093 525.491 78.5846 528.441 77.0406 530.074C75.5423 531.659 72.5538 530.961 70.6755 531.493C66.7073 532.617 65.5546 537.497 65.051 541.317C64.7809 543.37 64.6986 545.446 64.5521 547.51C64.4342 549.177 64.0942 550.82 63.9866 552.481C63.5872 558.606 67.3757 563.494 71.3657 567.36C73.6526 569.576 75.9841 571.739 78.3534 573.854C87.075 581.639 96.2854 588.809 105.872 595.333C119.077 604.321 133.05 612.103 147.686 618.085C151.571 619.673 155.502 621.128 159.473 622.454C160.424 622.771 160.018 624.372 159.06 624.052C143.128 618.732 127.879 611.238 113.486 602.244C102.41 595.323 91.8159 587.52 81.786 578.976C78.6441 576.299 75.5571 573.546 72.5434 570.707C69.8399 568.161 67.0209 565.628 65.0717 562.351C63.285 559.347 62.137 555.71 62.4609 552.12C62.62 550.36 62.9255 548.628 63.0422 546.858C63.1739 544.86 63.2849 542.86 63.5528 540.877C64.0438 537.242 65.1174 532.804 68.2799 530.771C69.4531 530.017 70.7934 529.707 72.1406 529.554C73.1662 529.438 74.7044 529.664 75.6315 529.103C76.5643 528.536 75.7735 527.086 75.4381 526.293C74.8166 524.82 74.0898 523.401 73.505 521.91C72.4817 519.298 71.7846 516.056 73.8059 513.754C75.9234 511.343 79.6124 510.951 82.388 509.893C84.0007 509.278 85.4498 508.246 87.1689 507.996C88.7839 507.76 90.4343 508.052 91.9887 508.531C93.4183 508.97 94.7815 509.6 96.1607 510.186C96.6357 510.388 97.1358 510.531 97.6062 510.735C97.6955 510.773 97.9279 510.844 98.0264 510.807C97.9508 510.835 97.8146 510.951 97.9119 510.812C98.2187 510.376 98.2415 509.384 98.3434 508.865C98.538 507.869 98.7601 506.878 99.0977 505.923C99.915 503.614 101.352 501.629 103.446 500.5C105.202 499.553 107.482 498.871 109.43 499.513C112.929 500.666 115.71 504.29 117.933 507.189C121.555 511.914 124.674 517.076 127.623 522.297C133.918 533.442 139.544 545.1 144.43 557.022C150.346 571.457 155.332 586.579 158.213 602.058C159.444 608.677 160.528 615.67 160.107 622.452C160.091 622.719 160.075 622.986 160.042 623.252C159.917 624.296 158.362 624.309 158.491 623.253Z" fill="#C4B2A4"/>
<path d="M159.66 623.969C155.98 626.393 151.92 628.261 147.939 630.03C137.065 634.861 125.644 638.292 114.087 640.675C106.844 642.168 99.5341 643.329 92.2557 644.614C87.0021 645.542 81.7473 646.477 76.4662 647.208C73.1984 647.661 69.8529 648.128 66.5508 647.952C64.8614 647.862 62.8171 647.633 61.5512 646.284C61.2857 646.002 61.1403 645.632 60.8954 645.344C60.291 644.635 59.3434 644.242 58.5663 643.794C56.87 642.815 55.0511 641.599 54.7318 639.402C54.5475 638.135 54.2763 637.425 53.4384 636.464C52.6418 635.55 51.7469 634.729 51.0429 633.726C49.5538 631.602 50.4077 628.91 51.0498 626.576C51.8819 623.555 52.7941 620.114 54.9676 617.862C56.3789 616.398 58.7745 615.068 57.0015 612.704C55.8364 611.15 53.4819 611.13 51.9779 610.058C49.9772 608.633 49.3695 606.106 49.12 603.692C48.5855 598.519 49.7815 591.582 53.8253 588.153C55.9096 586.386 58.7437 587.503 61.1599 587.316C64.3532 587.069 66.4558 584.098 68.8102 582.117C70.7285 580.504 72.9524 579.157 75.4762 579.276C76.8829 579.342 78.1602 579.891 79.4639 580.391C82.0243 581.373 84.5859 582.349 87.136 583.361C109.285 592.15 130.972 602.785 150.939 616.325C153.89 618.326 156.797 620.397 159.66 622.538C160.473 623.146 159.697 624.582 158.876 623.969C138.728 608.899 116.362 597.271 93.4907 587.714C88.2554 585.527 82.979 583.433 77.6727 581.452C74.6819 580.337 72.1443 581.402 69.7601 583.412C67.7502 585.107 65.9384 587.53 63.4775 588.484C62.2047 588.977 60.8382 589.039 59.499 588.969C58.1942 588.899 56.5253 588.46 55.2926 589.09C52.9611 590.281 51.7022 594.049 51.1333 596.502C50.4741 599.345 50.3069 602.469 50.9387 605.337C51.5396 608.062 53.0505 608.943 55.3385 609.801C57.0656 610.449 58.4997 611.428 59.0308 613.409C59.5688 615.412 58.5719 616.725 57.211 617.959C56.2862 618.798 55.3911 619.626 54.7719 620.761C53.894 622.37 53.3423 624.336 52.8101 626.105C52.3946 627.486 52.0284 628.9 51.8269 630.336C51.6106 631.881 52.1256 632.652 53.1111 633.749C53.8482 634.571 54.6459 635.334 55.2926 636.242C55.9714 637.194 56.0813 637.976 56.2507 639.107C56.586 641.346 59.206 642.182 60.7924 643.205C61.7046 643.794 62.1213 644.697 62.8424 645.299C63.3219 645.699 64.0762 645.937 64.7252 646.077C67.2456 646.624 69.9903 646.295 72.5221 646.035C83.454 644.911 94.3045 642.566 105.131 640.66C117.671 638.455 130.028 635.461 141.968 630.756C147.519 628.569 153.061 626.105 158.204 622.957C158.428 622.819 158.654 622.682 158.874 622.537C159.729 621.976 160.509 623.408 159.66 623.969Z" fill="#C4B2A4"/>
<path d="M158.596 623.671C155.201 615.318 152.198 606.762 149.408 598.161C146.903 590.432 144.609 582.614 142.719 574.686C140.77 566.508 139.256 558.198 137.685 549.93C136.178 542.005 134.737 534.058 133.598 526.062C132.777 520.295 131.927 514.381 132.081 508.529C132.125 506.85 132.235 505.091 132.828 503.517C134.088 500.171 135.588 496.832 137.285 493.712C138.651 491.201 140.365 488.246 142.898 486.917C144.937 485.847 146.972 486.58 148.756 487.856C151.109 489.54 153.029 491.809 155.171 493.766C156.023 494.544 156.975 495.417 158.068 495.774C159.126 496.121 160.264 496.241 161.336 496.555C164.121 497.37 167.019 498.474 169.404 500.247C171.108 501.514 172.045 502.921 172.477 505.063C173.504 510.148 173.796 515.376 174.86 520.456C175.046 521.34 175.299 522.179 175.558 523.039C175.595 523.164 175.778 523.499 175.806 523.529C175.536 523.217 175.547 523.7 175.829 523.07C176.72 521.082 177.372 519.02 178.088 516.953C178.743 515.066 179.415 512.681 180.848 511.273C182.305 509.843 184.827 510.383 186.485 511.05C189.069 512.089 191.356 514.154 192.405 516.919C193.554 519.947 193.823 523.355 194.25 526.56C194.382 527.554 194.355 529.209 194.862 530.088C195.352 530.937 196.972 530.274 197.826 530.282C199.318 530.293 200.04 531.144 200.112 532.639C200.318 536.871 199.525 541.327 198.845 545.47C197.584 553.157 195.679 560.739 193.161 568.065C190.231 576.589 186.295 584.633 182.04 592.482C178.292 599.397 174.27 606.164 169.863 612.624C167.359 616.296 164.705 620.579 161.254 623.344C160.626 623.845 159.655 624.534 158.872 623.966C158.051 623.369 158.827 621.933 159.656 622.536C159.663 622.541 159.454 622.555 159.596 622.497C159.719 622.447 159.881 622.345 160.036 622.244C160.567 621.895 161.026 621.405 161.47 620.945C162.906 619.455 164.191 617.794 165.438 616.124C169.506 610.679 173.14 604.85 176.588 598.945C180.861 591.627 184.943 584.085 188.329 576.25C191.607 568.666 194.088 560.687 195.889 552.564C197.106 547.07 198.079 541.463 198.462 535.825C198.511 535.092 198.551 534.359 198.562 533.624C198.568 533.264 198.686 532.469 198.522 532.141C198.099 531.295 194.926 532.682 193.873 531.566C193.352 531.014 193.226 530.056 193.092 529.329C192.831 527.906 192.68 526.46 192.488 525.026C192.082 522.01 191.824 518.374 190.08 515.847C188.566 513.652 185.37 511.553 182.696 512.114C181.094 512.451 180.399 515.113 179.891 516.518C179.126 518.63 178.523 520.818 177.649 522.882C177.23 523.872 176.406 525.684 175.099 525.001C174.013 524.435 173.722 522.525 173.471 521.419C172.904 518.912 172.57 516.341 172.216 513.793C171.879 511.35 171.579 508.898 171.154 506.47C171.02 505.706 170.908 504.898 170.658 504.164C170.216 502.869 169.119 501.993 168.059 501.285C165.697 499.707 162.972 498.698 160.28 497.97C159.347 497.717 158.345 497.624 157.437 497.292C156.458 496.936 155.604 496.261 154.803 495.582C152.611 493.727 150.751 491.45 148.494 489.678C146.466 488.086 144.454 487.377 142.372 489.272C139.942 491.483 138.369 494.844 136.97 497.839C135.861 500.213 134.432 502.766 133.915 505.383C133.023 509.907 133.794 515.016 134.306 519.538C135.133 526.847 136.367 534.105 137.666 541.333C140.485 557.01 143.408 572.716 147.884 587.965C151.181 599.198 154.999 610.276 159.256 621.134C159.478 621.701 159.702 622.267 159.931 622.831C160.331 623.804 158.993 624.647 158.596 623.671Z" fill="#C4B2A4"/>
<path d="M52.943 623.021C65.0527 625.532 77.3809 627.189 89.6725 628.216C99.5113 629.037 109.402 629.36 119.251 628.552C128.926 627.758 138.593 626.634 148.158 624.875C151.804 624.205 155.494 623.519 159.061 622.455C159.061 622.987 159.061 623.52 159.061 624.052C147.009 619.962 134.79 616.333 122.494 613.176C113.356 610.83 104.163 609.112 94.8952 607.481C85.2521 605.785 75.6228 604.001 66.0003 602.179C60.6025 601.156 55.2058 600.126 49.8148 599.068C48.8328 598.875 49.2484 597.278 50.2281 597.47C64.034 600.178 77.8604 602.776 91.7064 605.245C101.045 606.91 110.365 608.466 119.595 610.743C128.29 612.887 136.914 615.352 145.489 617.98C150.166 619.413 154.837 620.88 159.475 622.455C160.193 622.699 160.232 623.827 159.475 624.052C156.573 624.918 153.585 625.506 150.624 626.084C141.852 627.796 132.98 628.936 124.1 629.78C104.769 631.617 85.4914 630.014 66.3266 627.045C61.7151 626.331 57.1024 625.567 52.5275 624.619C51.55 624.415 51.9644 622.817 52.943 623.021Z" fill="#C4B2A4"/>
<path d="M65.8342 536.032C78.0126 549.896 90.7848 563.353 104.342 575.68C118.479 588.534 133.198 600.682 147.868 612.83C151.791 616.078 155.717 619.32 159.66 622.54C159.305 622.919 158.951 623.296 158.596 623.673C152.67 611.585 146.653 599.547 140.572 587.547C130.635 567.935 120.543 548.421 109.134 529.729C105.463 523.715 101.739 517.693 97.6741 511.969C97.0709 511.119 98.4192 510.293 99.0156 511.133C102.281 515.732 105.303 520.541 108.29 525.345C114.499 535.333 120.394 545.545 125.972 555.949C135.415 573.563 144.382 591.472 153.294 609.397C155.518 613.872 157.738 618.349 159.938 622.837C160.262 623.497 159.541 624.514 158.875 623.971C148.481 615.479 138.153 606.892 127.888 598.223C120.433 591.927 113.001 585.595 105.715 579.079C96.7997 571.107 88.3171 562.605 80.0441 553.885C74.8569 548.418 69.7212 542.882 64.7342 537.205C64.0532 536.425 65.1498 535.251 65.8342 536.032Z" fill="#C4B2A4"/>
<path d="M159.054 496.675C157.237 513.085 156.118 529.686 156.012 546.21C155.944 556.633 156.534 567.06 157.098 577.461C157.633 587.331 158.252 597.196 158.912 607.056C159.274 612.455 159.644 617.854 160.044 623.25C159.561 623.111 159.079 622.972 158.596 622.833C163.114 611.73 167.465 600.545 171.655 589.298C174.594 581.403 177.486 573.471 179.991 565.405C182.744 556.536 184.51 547.346 186.185 538.188C187.582 530.547 188.867 522.874 189.974 515.178C190.125 514.127 191.622 514.574 191.472 515.619C190.544 522.075 189.48 528.511 188.347 534.929C186.653 544.533 184.936 554.246 182.177 563.578C177.416 579.673 171.16 595.322 165.042 610.871C163.361 615.145 161.668 619.415 159.937 623.668C159.601 624.494 158.543 623.974 158.49 623.25C157.457 609.291 156.547 595.319 155.757 581.342C155.177 571.073 154.551 560.775 154.461 550.486C154.36 539.127 154.929 527.76 155.748 516.439C156.226 509.843 156.772 503.244 157.5 496.674C157.616 495.629 159.172 495.617 159.054 496.675Z" fill="#C4B2A4"/>
<path d="M163.851 631.912L172.919 606.525C172.919 606.525 147.317 602.829 136.773 633.566L163.851 631.912Z" fill="#C4B2A4"/>
<path d="M164.518 631.495C167.024 636.884 169.994 642.061 172.996 647.145C180.63 660.071 189.204 672.375 198.535 683.962C212.748 701.61 229.639 716.828 242.406 735.782C249.696 746.605 255.538 758.435 260.479 770.655C263.735 778.707 266.496 786.96 269.473 795.13C272.24 802.724 275.143 810.265 278.28 817.696C287.216 838.863 298.149 859.784 314.895 875.072C324.296 883.654 334.999 889.923 346.96 893.43C355.98 896.074 365.471 897.463 374.837 897.284C375.309 897.275 375.78 897.264 376.251 897.235C377.25 897.174 377.246 898.83 376.251 898.891C369.441 899.309 362.437 898.475 355.745 897.223C342.738 894.786 330.4 889.663 319.743 881.278C302.961 868.073 291.26 849.67 282.024 829.978C275.248 815.531 269.649 800.494 264.35 785.374C259.401 771.253 253.622 757.382 246.09 744.593C240.518 735.13 233.933 726.481 226.782 718.33C219.514 710.044 211.88 702.134 204.669 693.789C194.394 681.899 184.932 669.212 176.448 655.81C171.874 648.584 167.498 641.158 163.707 633.426C163.528 633.063 163.351 632.699 163.179 632.332C162.734 631.38 164.073 630.54 164.518 631.495Z" fill="#C4B2A4"/>
<path d="M248.135 748.124C245.466 744.66 243.179 740.81 241.021 736.974C235.668 727.462 231.33 717.281 228.052 706.755C223.796 693.092 220.975 678.536 221.777 664.085C222.457 651.84 225.681 640.086 229.867 628.723C233.614 618.553 238.593 608.378 239.999 597.436C240.1 596.648 241.079 596.742 241.418 597.238C244.251 601.385 246.673 605.897 248.969 610.395C254.424 621.085 258.888 632.39 262.154 644.053C266.006 657.806 268.789 672.651 267.065 687.033C265.812 697.474 262 706.954 257.703 716.327C253.142 726.275 249.026 736.215 249.462 747.538C249.503 748.604 247.949 748.603 247.909 747.538C247.533 737.775 250.401 728.791 254.275 720.084C258.368 710.886 262.784 701.908 264.747 691.849C267.462 677.934 265.412 663.582 262.098 649.992C259.069 637.565 254.634 625.531 249.082 614.143C246.397 608.635 243.515 603.102 240.079 598.073C240.552 598.007 241.025 597.941 241.498 597.876C240.293 607.257 236.36 616.052 233.033 624.736C228.855 635.641 225.154 646.809 223.803 658.561C222.152 672.91 224.234 687.244 228.008 701.04C231.077 712.258 235.37 723.101 240.786 733.259C243.281 737.94 246.116 742.904 249.234 746.953C249.864 747.77 248.771 748.948 248.135 748.124Z" fill="#C4B2A4"/>
<path d="M263.846 783.928C262.322 780.459 260.344 777.17 258.317 774.018C253.559 766.62 247.857 759.865 241.314 754.214C232.447 746.554 222.259 741.614 211.104 739.167C199.717 736.67 188.299 736.429 176.857 738.59C166.502 740.545 156.418 743.331 145.811 743.012C146.034 742.597 146.258 742.181 146.481 741.766C148.067 744.583 150.048 747.19 152.057 749.668C156.939 755.688 162.608 761.01 168.908 765.287C177.762 771.296 187.496 774.637 197.849 776.205C209.68 777.997 221.61 777.658 233.522 777.601C244.075 777.551 255.258 777.648 264.909 782.795C265.803 783.273 265.017 784.702 264.125 784.226C255.272 779.506 245.007 779.257 235.313 779.253C223.537 779.248 211.761 779.696 200.04 778.171C189.404 776.785 179.28 773.823 170.022 767.963C163.419 763.783 157.435 758.475 152.272 752.421C149.683 749.384 147.127 746.134 145.139 742.603C144.841 742.073 145.221 741.339 145.809 741.357C155.557 741.65 164.864 739.333 174.368 737.402C185.246 735.192 196.068 734.784 207.027 736.688C213.304 737.778 219.502 739.361 225.37 742.012C230.317 744.246 234.992 747.119 239.323 750.504C246.496 756.109 252.719 763.002 257.968 770.643C260.652 774.55 263.252 778.695 265.187 783.096C265.609 784.051 264.271 784.894 263.846 783.928Z" fill="#C4B2A4"/>
<path d="M290.339 846.077C285.091 834.936 281.371 822.551 279.325 810.306C277.728 800.751 277.18 790.742 279.274 781.22C281.488 771.16 285.069 761.411 288.949 751.966C291.841 744.928 294.79 737.969 295.235 730.19C295.28 729.406 296.289 729.016 296.683 729.773C298.538 733.327 300.054 737.115 301.456 740.891C304.509 749.113 306.777 757.708 307.825 766.49C309.056 776.819 308.125 787.006 305.151 796.917C302.643 805.274 298.817 813.01 295.437 820.977C292.147 828.731 289.662 836.931 291.758 845.44C292.012 846.473 290.514 846.912 290.26 845.881C288.508 838.77 289.704 831.699 292.174 824.96C295.055 817.101 298.986 809.736 301.855 801.868C305.333 792.328 307.282 782.353 306.752 772.089C306.264 762.622 304.095 753.287 301.053 744.403C299.444 739.702 297.628 734.99 295.341 730.609C295.824 730.47 296.306 730.331 296.789 730.19C296.412 736.775 294.378 742.799 291.936 748.798C288.397 757.494 284.994 766.168 282.437 775.264C280.966 780.498 279.817 785.671 279.552 791.144C279.312 796.117 279.603 801.119 280.249 806.046C281.412 814.912 283.656 823.611 286.505 832.021C288.022 836.499 289.672 840.98 291.678 845.241C292.128 846.192 290.789 847.032 290.339 846.077Z" fill="#C4B2A4"/>
<path d="M299.908 859.257C299.807 859.308 299.502 859.983 299.605 859.966C299.611 859.965 299.531 859.689 299.517 859.663C299.563 859.75 299.248 859.109 299.143 858.919C298.633 857.985 298.028 857.105 297.407 856.253C295.255 853.299 292.77 850.608 290.158 848.118C282.042 840.38 272.248 834.596 261.723 831.587C254.035 829.389 246.058 828.748 238.135 829.463C238.318 828.992 238.501 828.521 238.684 828.05C242.859 832.738 247.484 837.032 252.207 841.072C261.092 848.672 271.093 855.845 282.167 859.164C288.031 860.922 294.28 861.403 300.092 859.174C301.034 858.813 301.44 860.413 300.505 860.772C289.663 864.93 277.765 860.252 268.188 854.644C258.854 849.178 250.342 842.063 242.542 834.364C240.852 832.695 239.172 831.002 237.585 829.22C237.097 828.671 237.474 827.865 238.135 827.807C252.092 826.546 266.067 829.716 278.281 837.041C286.046 841.697 293.372 847.926 298.812 855.505C299.283 856.16 302.286 859.872 300.691 860.687C299.794 861.145 299.006 859.718 299.908 859.257Z" fill="#C4B2A4"/>
<path d="M263.968 784.096C261.709 781.177 259.04 778.56 256.351 776.104C250.077 770.375 242.972 765.54 235.3 762.239C226.33 758.38 216.725 757.136 207.154 756.28C197.14 755.386 187.087 754.928 177.124 753.479C166.09 751.875 155.084 748.988 145.42 742.899C144.56 742.357 145.341 740.924 146.204 741.468C163.965 752.662 185.425 752.785 205.392 754.47C214.936 755.276 224.653 756.282 233.702 759.815C241.615 762.906 248.926 767.558 255.478 773.186C258.889 776.115 262.27 779.311 265.068 782.925C265.698 783.74 264.605 784.918 263.968 784.096Z" fill="#C4B2A4"/>
<path d="M247.934 747.759C243.374 735.388 240.064 722.28 237.852 709.217C236.088 698.801 235.205 688.26 236.031 677.692C237.017 665.054 239.098 652.566 240.532 639.985C242.132 625.941 242.554 611.827 239.998 597.875C239.807 596.834 241.304 596.387 241.496 597.434C243.738 609.676 243.813 622.094 242.66 634.474C241.502 646.911 239.384 659.219 238.128 671.645C237.552 677.336 237.11 683.025 237.267 688.752C237.416 694.167 237.951 699.565 238.739 704.914C240.142 714.453 242.298 723.865 244.921 733.104C246.277 737.885 247.719 742.665 249.433 747.317C249.799 748.312 248.297 748.742 247.934 747.759Z" fill="#C4B2A4"/>
<path d="M290.335 846.075C289.095 843.254 288.232 840.204 287.466 837.206C285.465 829.378 284.459 821.249 284.281 813.144C284.036 802.049 285.489 790.998 287.93 780.23C289.791 772.017 292.498 764.075 294.525 755.914C296.634 747.425 297.028 739.02 295.261 730.407C295.048 729.368 296.545 728.924 296.759 729.967C298.29 737.428 298.391 744.917 296.912 752.394C295.401 760.033 292.799 767.386 290.838 774.896C285.825 794.09 283.94 814.318 288.274 833.874C289.117 837.673 290.169 841.812 291.677 845.239C292.099 846.198 290.76 847.04 290.335 846.075Z" fill="#C4B2A4"/>
<path d="M299.908 860.688C295.895 857.409 291.639 854.436 287.359 851.576C277.941 845.28 268.056 839.647 257.679 835.364C251.291 832.727 244.698 830.613 237.929 829.434C236.945 829.262 237.363 827.665 238.342 827.836C250.263 829.915 261.662 834.803 272.388 840.609C280.689 845.102 288.697 850.246 296.34 855.911C297.808 856.999 299.273 858.099 300.692 859.257C301.475 859.897 300.702 861.336 299.908 860.688Z" fill="#C4B2A4"/>
<path d="M202.028 689.214C201.018 689.882 202.109 690.314 201.602 689.948C201.652 689.984 201.274 689.555 201.144 689.411C200.547 688.747 199.892 688.14 199.229 687.552C197.024 685.595 194.612 683.893 192.127 682.369C184.575 677.732 176.046 674.807 167.337 674.186C160.908 673.727 154.492 674.545 148.307 676.448C148.422 675.986 148.536 675.525 148.649 675.063C151.643 678.268 155.198 680.982 158.777 683.376C166.357 688.448 174.992 692.064 183.993 692.587C190.257 692.95 196.437 691.72 202.212 689.13C203.133 688.717 203.534 690.32 202.625 690.728C192.622 695.215 181.632 695.272 171.391 691.633C164.055 689.027 157.241 684.817 151.223 679.664C149.959 678.581 148.697 677.462 147.551 676.235C147.134 675.79 147.333 675.023 147.894 674.851C165.867 669.321 186.557 673.672 200.824 686.829C201.411 687.371 204.279 689.673 202.811 690.645C201.959 691.207 201.179 689.776 202.028 689.214Z" fill="#C4B2A4"/>
<path d="M202.029 690.643C199.238 689.052 196.247 687.806 193.292 686.623C185.294 683.425 177.002 681.057 168.618 679.34C161.838 677.952 154.987 677.017 148.102 676.476C147.111 676.398 147.103 674.742 148.102 674.82C165.7 676.201 183.612 679.977 199.801 687.68C200.815 688.162 201.833 688.653 202.813 689.212C203.694 689.715 202.911 691.145 202.029 690.643Z" fill="#C4B2A4"/>
</g>
<path d="M1465.49 212.139V246.701" stroke="#C4B2A4" stroke-width="1.5832" stroke-miterlimit="10"/>
<path d="M1449.29 229.42H1481.7" stroke="#C4B2A4" stroke-width="1.5832" stroke-miterlimit="10"/>
<path d="M1468.21 226.447L1474.92 219.285" stroke="#C4B2A4" stroke-width="1.5832" stroke-miterlimit="10"/>
<path d="M1456.06 239.403L1462.78 232.24" stroke="#C4B2A4" stroke-width="1.5832" stroke-miterlimit="10"/>
<path d="M1468.21 232.24L1474.92 239.403" stroke="#C4B2A4" stroke-width="1.5832" stroke-miterlimit="10"/>
<path d="M1456.06 219.285L1462.78 226.447" stroke="#C4B2A4" stroke-width="1.5832" stroke-miterlimit="10"/>
<path d="M246.203 79.9824V114.544" stroke="#C4B2A4" stroke-width="1.5832" stroke-miterlimit="10"/>
<path d="M230 97.2637H262.409" stroke="#C4B2A4" stroke-width="1.5832" stroke-miterlimit="10"/>
<path d="M248.918 94.291L255.635 87.1289" stroke="#C4B2A4" stroke-width="1.5832" stroke-miterlimit="10"/>
<path d="M236.77 107.247L243.487 100.084" stroke="#C4B2A4" stroke-width="1.5832" stroke-miterlimit="10"/>
<path d="M248.918 100.084L255.635 107.247" stroke="#C4B2A4" stroke-width="1.5832" stroke-miterlimit="10"/>
<path d="M236.77 87.1289L243.487 94.291" stroke="#C4B2A4" stroke-width="1.5832" stroke-miterlimit="10"/>
<path d="M449.203 551.344V585.906" stroke="#C4B2A4" stroke-width="1.5832" stroke-miterlimit="10"/>
<path d="M433 568.625H465.409" stroke="#C4B2A4" stroke-width="1.5832" stroke-miterlimit="10"/>
<path d="M451.918 565.652L458.635 558.49" stroke="#C4B2A4" stroke-width="1.5832" stroke-miterlimit="10"/>
<path d="M439.77 578.609L446.487 571.445" stroke="#C4B2A4" stroke-width="1.5832" stroke-miterlimit="10"/>
<path d="M451.918 571.445L458.635 578.609" stroke="#C4B2A4" stroke-width="1.5832" stroke-miterlimit="10"/>
<path d="M439.77 558.49L446.487 565.652" stroke="#C4B2A4" stroke-width="1.5832" stroke-miterlimit="10"/>
<path d="M121.203 415.908V450.47" stroke="#C4B2A4" stroke-width="1.5832" stroke-miterlimit="10"/>
<path d="M105 433.189H137.409" stroke="#C4B2A4" stroke-width="1.5832" stroke-miterlimit="10"/>
<path d="M123.918 430.217L130.635 423.055" stroke="#C4B2A4" stroke-width="1.5832" stroke-miterlimit="10"/>
<path d="M111.77 443.173L118.487 436.01" stroke="#C4B2A4" stroke-width="1.5832" stroke-miterlimit="10"/>
<path d="M123.918 436.01L130.635 443.173" stroke="#C4B2A4" stroke-width="1.5832" stroke-miterlimit="10"/>
<path d="M111.77 423.055L118.487 430.217" stroke="#C4B2A4" stroke-width="1.5832" stroke-miterlimit="10"/>
<path d="M1607.2 432.971V467.533" stroke="#C4B2A4" stroke-width="1.5832" stroke-miterlimit="10"/>
<path d="M1591 450.252H1623.41" stroke="#C4B2A4" stroke-width="1.5832" stroke-miterlimit="10"/>
<path d="M1609.92 447.279L1616.63 440.117" stroke="#C4B2A4" stroke-width="1.5832" stroke-miterlimit="10"/>
<path d="M1597.77 460.235L1604.49 453.072" stroke="#C4B2A4" stroke-width="1.5832" stroke-miterlimit="10"/>
<path d="M1609.92 453.072L1616.63 460.235" stroke="#C4B2A4" stroke-width="1.5832" stroke-miterlimit="10"/>
<path d="M1597.77 440.117L1604.49 447.279" stroke="#C4B2A4" stroke-width="1.5832" stroke-miterlimit="10"/>
</svg>
