<svg width="261" height="325" viewBox="0 0 261 325" fill="none" xmlns="http://www.w3.org/2000/svg">
<path d="M257.66 119.367C257.609 116.146 260.749 114.604 261 112.003C259.802 110.776 241.211 89.7812 239.658 88.5091C240.07 87.9754 240.48 87.4445 240.725 87.3793C240.261 87.2239 239.332 88.1755 239.14 88.9285L239.903 89.7109C239.271 91.2887 239.192 89.6199 238.347 90.9719C237.618 90.4836 238.301 89.1624 238.967 88.0502C238.23 88.9388 237.079 89.4814 237.557 90.48C236.655 91.1435 236.793 89.6984 235.758 90.5394C235.428 91.472 235.398 93.0278 234.386 93.5807L234.277 93.4663C232.094 95.0368 233.045 97.5964 230.997 98.988L230.915 98.5906C230.042 98.9608 229.631 100.759 228.348 101.666C228.731 101.421 229.438 101.515 229 102.334C227.579 103.419 227.332 104.752 226.076 105.369L226.047 106.924C223.278 110.71 215.073 123.838 209.934 131.972C212.981 125.746 216.79 118.189 217.575 115.776L217.195 116.188C217.98 112.607 218.969 113.686 220.489 111.348C219.119 111.026 219.68 107.899 220.06 106.796L220.309 106.979C220.819 105.282 221.382 101.119 222.4 98.4117L223.021 98.8714C224.752 90.1662 230.408 86.1028 232.87 77.0794L236.163 74.9773L236.177 74.4215C236.177 74.4215 233.825 72.4786 230.412 70.0436C232.788 66.9781 235.102 63.7015 237.465 60.7643C237.763 61.1346 237.323 62.1764 236.88 63.219C237.309 62.6845 237.848 61.7688 238.476 61.4821C237.123 61.9308 239.357 59.4005 238.519 59.9468C239.355 55.695 243.527 52.9279 244.543 49.4247C243.453 48.0624 226.911 24.532 225.39 23.2144C226.025 22.4189 226.658 21.6278 226.968 21.4863C226.455 21.3858 225.091 22.8478 224.659 23.8823L225.36 24.7417C224.183 26.9625 224.536 24.7805 223.165 26.7521C222.426 26.2718 223.596 24.3773 224.688 22.7628C223.57 24.0979 222.051 25.0709 222.353 26.2806C221.099 27.3562 221.651 25.4213 220.19 26.7601C219.546 28.0623 219.093 30.1196 217.737 31.0735L217.638 30.9474C214.611 33.5011 215.062 36.6722 212.23 38.9466L212.241 38.4414C211.098 39.1189 210.114 41.5758 208.333 43.0473C211.557 41.4021 204.731 48.5617 204.607 48.4151L204.145 50.4702C202.746 52.2827 200.37 55.4816 197.532 59.3983C189.903 69.9344 179.338 84.7427 171.975 94.6966C173.342 91.8159 175.098 89.0715 176.375 86.7216C178.165 84.0411 180.884 77.5222 181.718 81.2586C182.587 78.9615 181.365 79.7819 182.43 78.0472C182.847 77.6586 183.008 78.5707 182.971 78.9219C183.312 78.0772 183.997 77.5405 183.651 77.2289C182.812 78.0098 182.039 76.9276 181.155 76.9056L182.521 74.6752L183.099 75.1987C183.404 74.7001 182.087 72.752 183.684 70.7314C186.089 67.1292 188.125 62.8363 190.383 59.1073C190.733 59.4159 190.516 60.3676 190.297 61.32C190.599 60.8193 190.932 59.9724 191.467 59.6792C190.282 60.1631 191.902 57.7787 191.219 58.3162C191.21 54.5035 194.605 51.7841 194.89 48.6138C193.073 46.9348 175.256 29.4649 172.423 27.1509C173.813 24.7219 175.105 22.1535 176.011 19.5382L179.897 16.7168L180.014 16.024C177.75 13.0413 158.4 -4.41387 152.144 1.05284L151.567 0.522735L150.809 2.20395C149.481 3.96436 149.763 5.32957 149.187 4.8002L150.649 2.16876C149.447 4.01861 149.813 2.43564 149.835 1.45976C149.349 2.24208 148.86 2.9914 148.325 3.5237C148.373 4.06407 148.74 3.40346 149.038 3.18423C148.72 4.38228 148.567 6.227 147.604 7.33192C146.504 9.30788 146.491 6.81942 145.207 9.12678C144.046 11.1409 142.902 13.1447 141.764 15.1463C137.739 10.2779 134.123 5.95791 133.47 5.39995C133.965 4.76501 134.458 4.13445 134.727 4.03987C134.246 3.90423 133.155 5.05242 132.874 5.91466L133.613 6.7285C132.779 8.55416 132.861 6.68598 131.821 8.27701C131.089 7.7909 131.954 6.24753 132.777 4.94171C131.899 6.00264 130.611 6.7109 131.023 7.79237C129.991 8.61501 130.284 6.97999 129.09 8.01306C128.643 9.08939 128.455 10.8388 127.315 11.5471L127.21 11.4283C124.712 13.3823 125.474 16.1684 123.151 17.9185L123.101 17.4786C122.132 17.9735 121.517 20.0323 120.057 21.1673C120.491 20.8579 121.239 20.899 120.692 21.8587C119.065 23.2085 118.673 24.7277 117.269 25.535L117.089 27.2836C111.885 34.4572 99.3268 54.4375 93.3808 63.5915L93.436 63.2689C88.7622 70.6309 79.9052 83.8475 74.4221 92.8291C72.3594 96.1974 70.5435 99.3172 69.1771 101.89C67.5248 102.842 66.3172 105.006 65.1001 106.401C65.9505 105.763 66.2257 106.429 65.7514 107.077C62.5503 111.73 65.9996 107.758 63.1249 112.749C57.152 124.06 41.9393 141.889 37.1613 152.886L37.096 152.447C35.6603 155.497 24.6349 170.557 22.9314 174.077L23.3506 173.748C22.1719 177.046 21.3276 175.838 19.5723 177.814C20.8755 178.364 19.9699 181.267 19.4673 182.256L19.2453 182.036C18.549 183.574 17.5109 187.459 16.2131 189.884L15.6574 189.335C12.9737 197.381 6.96656 200.292 3.54013 208.526L0.0767001 209.974L0 210.504C1.96046 213.151 20.9434 231.232 26.4238 228.286L26.9822 228.827L27.5884 227.67C28.7133 226.574 28.3822 225.438 28.9386 225.981L27.7371 227.733C28.7415 226.539 28.4892 227.705 28.5215 228.467C28.9258 227.958 29.3342 227.476 29.7971 227.175C29.7238 226.739 29.423 227.178 29.1613 227.285C29.3894 226.413 29.4318 224.994 30.2559 224.335C31.1601 223.021 31.3034 224.985 32.357 223.452C38.054 215.436 43.8405 207.911 49.0148 199.447C49.3889 199.447 49.2355 199.667 49.1958 199.995C50.5387 197.272 52.0504 195.092 53.2493 192.594C53.9294 192.163 54.4165 192.274 54.7899 192.278C54.0445 192.275 62.3418 179.186 62.6216 179.093L61.628 178.095C63.2097 175.609 63.3469 178.335 64.5532 175.841C63.9356 174.517 65.158 173.392 66.0514 172.382C65.6653 173.058 65.3121 173.693 65.232 174.317L66.1651 173.198C64.6723 176.694 62.9264 178.063 62.8396 180.85L63.8844 179.842C62.9661 181.918 62.2213 183.668 60.7534 183.844L61.4349 181.563C59.8256 184.954 58.9093 187.031 58.1188 190.178L58.6355 189.191C57.6499 194.537 50.5851 209.736 49.3277 216.639L50.9208 215.629L50.2023 218.86C50.3644 218.561 48.5621 216.349 48.5499 215.868C43.7867 225.813 36.5504 240.564 31.2738 250.555C29.3026 253.744 25.6898 262.347 25.1099 257.945C23.9816 260.82 25.3602 259.655 24.0704 261.891C23.5901 262.42 23.4972 261.352 23.5679 260.927C23.1306 261.988 22.3515 262.733 22.6933 263.055C23.658 261.996 24.3907 263.173 25.3332 263.065L23.6742 265.947L23.1037 265.406C22.7289 266.043 23.979 268.202 22.0649 270.849C19.1175 275.489 16.4405 280.871 13.6088 285.62C13.2704 285.291 13.6095 284.124 13.9506 282.957C13.5712 283.593 13.1204 284.648 12.5163 285.064C13.8362 284.342 11.8374 287.395 12.6273 286.669C12.2942 291.052 8.25155 294.618 7.41126 298.631C8.75142 299.91 27.3623 321.774 28.8895 322.861C28.2901 323.83 27.6933 324.792 27.3845 325C27.916 325.014 29.2205 323.197 29.5959 322.011L28.8202 321.223C29.8805 318.635 29.6625 321.028 30.9395 318.668C31.7306 319.041 30.6542 321.283 29.6383 323.212C30.6979 321.577 32.1955 320.25 31.8053 319.017C33.023 317.631 32.583 319.801 33.9979 318.093C34.5738 316.579 34.9014 314.303 36.2335 313.024L36.3445 313.138C39.2879 309.821 38.6326 306.569 41.3035 303.54L41.3365 304.081C42.4466 303.117 43.2377 300.293 44.9304 298.346C41.7845 300.755 48.1584 291.679 48.2707 291.839C48.2802 289.087 50.1034 287.073 51.2451 284.604C54.1218 286.817 57.0134 288.106 59.543 287.486L59.9992 288.138L61.0003 286.811C62.5524 285.576 62.5174 284.241 62.9722 284.893L61.1456 286.89C62.5941 285.536 61.9805 286.885 61.7948 287.774C62.3862 287.195 62.9749 286.648 63.5709 286.314C63.6167 285.803 63.1585 286.305 62.8396 286.421C63.3429 285.412 63.7997 283.761 64.8956 283.023C66.2687 281.524 65.8604 283.815 67.4622 282.065C76.0495 272.916 84.5204 264.247 92.5102 254.421C92.9226 254.425 92.6939 254.681 92.5607 255.064C94.7754 251.894 97.0528 249.383 99.0274 246.457C99.8905 245.956 100.398 246.087 100.809 246.092C101.036 244.705 110.779 233.048 112.899 230.659L112.057 229.497C114.434 226.573 113.894 229.765 115.859 226.833C115.312 224.403 119.679 222.506 119.693 220.844C119.788 220.975 120.913 219.698 121.287 220.212C120.851 219.062 122.224 218.684 122.71 217.662C122.742 217.152 122.3 217.661 121.882 217.66L123.168 215.487C124.024 214.98 124.626 215.234 124.048 216.128C127.358 212.561 139.901 198.093 145.51 191.227C144.45 193.827 142.973 194.763 143.169 196.977L144.057 196.268C143.395 197.851 142.867 199.19 141.493 199.184L141.91 197.411C140.727 199.988 140.061 201.568 139.626 204.027L140.017 203.283C139.818 206.615 133.931 221.323 134.088 224.596L135.48 223.922L135.157 226.476C135.278 226.25 133.329 224.287 133.267 223.897C131.401 228.021 124.224 243.913 120.91 250.556C119.29 253.342 117.239 259.512 116.069 256.028C115.376 258.236 116.521 257.426 115.594 259.103C115.21 259.479 114.99 258.619 115.002 258.286C114.725 259.093 114.088 259.614 114.449 259.903C115.22 259.147 116.055 260.158 116.926 260.159L115.73 262.312L115.127 261.823C114.861 262.298 116.279 264.134 114.828 266.069C112.69 269.504 110.858 273.483 108.744 276.842C108.398 276.535 108.585 275.66 108.768 274.778C108.489 275.231 108.191 276.008 107.674 276.243C108.819 275.867 107.294 277.985 107.947 277.528C108.108 280.939 104.831 283.158 104.383 286.201C105.875 287.342 124.225 308.86 125.522 310.197C124.965 310.949 124.409 311.695 124.12 311.826C124.62 311.93 125.839 310.546 126.182 309.566L125.438 308.755C126.382 306.66 126.229 308.716 127.376 306.846C128.125 307.282 127.194 309.098 126.234 310.626C127.235 309.365 128.598 308.411 128.203 307.276C129.317 306.237 128.97 308.077 130.249 306.774C130.737 305.521 130.964 303.583 132.139 302.63L132.25 302.743C134.866 300.2 133.97 297.294 136.309 295.003L136.378 295.468C137.362 294.757 137.897 292.426 139.316 290.931C138.89 291.347 138.121 291.445 138.617 290.315C140.204 288.556 140.467 286.863 141.838 285.722L141.859 283.836C142.733 282.247 144.069 279.554 145.618 276.278C147.665 277.399 149.525 278.022 150.985 277.832L151.528 278.39L152.071 277.429C153.106 276.591 152.762 275.53 153.304 276.088L152.213 277.504C153.132 276.563 152.925 277.575 152.975 278.264C153.344 277.858 153.718 277.479 154.148 277.267C154.067 276.867 153.794 277.223 153.548 277.286C153.741 276.532 153.743 275.265 154.506 274.78C155.326 273.717 155.515 275.495 156.471 274.255C161.636 267.808 166.883 261.762 171.504 254.757C171.858 254.802 171.721 254.981 171.694 255.271C172.985 253.573 174.849 248.083 176.722 248.999C176.015 248.908 183.39 238.113 183.636 238.048L182.656 237.04C184.052 234.982 184.292 237.448 185.332 235.34C184.328 233.36 187.656 232.328 187.302 231.015C187.412 231.128 188.096 230.24 188.53 230.686C187.903 229.728 188.996 229.577 189.189 228.822C189.106 228.423 188.836 228.775 188.479 228.731L189.111 227.155C189.737 226.849 190.309 227.116 190.006 227.758C192.712 224.503 205.078 208.363 207.266 204.261C206.311 204.236 205.928 205.743 204.647 205.384C204.787 203.941 205.849 204.075 205.577 203.165C207.293 203.973 207.434 201.261 209.425 201.713L208.8 200.753L209.645 200.671C211.809 195.591 209.917 199.328 212.788 195.605C214.19 193.291 213.822 191.316 215.034 190.391C214.806 190.533 214.124 190.539 214.298 189.854C215.089 190.346 214.848 187.879 215.774 188.194C216.076 187.549 217.443 185.779 216.023 185.594C216.732 185.684 218.071 184.201 217.822 185.534C218.235 185.001 218.752 184.582 218.809 184.003L218.041 184.492C219.193 182.497 220.663 182.1 220.613 180.145L219.742 180.517C220.453 179.344 221.027 178.345 222.308 178.704L221.814 180.103C223.072 178.221 223.783 177.045 224.333 175.068L223.924 175.6C224.31 172.823 230.636 161.823 230.669 159L229.332 159.217L229.773 157.127C229.648 157.289 231.358 159.453 231.395 159.801C232.565 159.092 248.587 130.364 249.177 136.695C249.943 134.941 248.825 135.379 249.783 134.139C250.163 133.898 250.327 134.699 250.298 134.986C250.6 134.346 251.225 134.035 250.9 133.701C250.136 134.185 249.402 133.114 248.584 132.914L249.813 131.316L250.357 131.877C250.631 131.521 249.381 129.605 250.828 128.231C252.988 125.684 254.846 122.517 256.897 119.856C257.224 120.191 257.033 120.946 256.839 121.701C257.114 121.344 257.413 120.702 257.906 120.57C256.811 120.723 258.287 119.061 257.66 119.367ZM172.161 28.0784C171.754 29.3014 171.559 29.0829 171.27 29.1137C171.508 28.7214 171.745 28.324 171.981 27.9223L172.161 28.0784ZM68.9666 166.188C69.2458 166.015 69.5068 165.956 69.6979 165.993C69.5418 166.346 69.3453 166.598 69.0668 166.613C68.9531 166.927 68.7318 167.424 68.5118 167.958C68.4203 167.997 68.32 168.032 68.2131 168.031L68.9666 166.188ZM66.852 170.741C66.9429 170.832 67.4744 170.126 67.9049 170.107C67.9244 170.466 68.1115 170.653 68.5959 170.502C67.8289 170.749 66.3091 173.291 66.4484 171.897C66.7484 171.496 66.9341 171.112 66.852 170.741ZM147.05 189.346C147.093 189.293 147.135 189.241 147.178 189.189C147.282 189.226 147.413 189.238 147.585 189.21C147.283 189.26 146.895 189.632 146.547 189.958C146.715 189.754 146.886 189.546 147.05 189.346Z" fill="white"/>
</svg>
